<svg version="1.2" xmlns="http://www.w3.org/2000/svg" viewBox="0 0 720 130" width="720" height="130">
	<title>AInoon logo</title>
	<style>
		.s0 { fill: black }
	</style>
	<g id="레이어 1">
		<g id="&lt;Group&gt;">
			<g id="&lt;Group&gt;">
				<path id="&lt;Path&gt;" class="s0" d="m514.3 130c-14.1 0-27.6-4.5-38.8-13-5.6-4.3-6.8-12.2-2.5-17.9 4.2-5.6 12.2-6.7 17.8-2.5 6.8 5.2 15 7.9 23.5 7.9 10.7 0 20.7-4.3 28.1-12 7.4-7.7 11.3-17.8 10.9-28.6-0.8-20.3-17.4-36.7-37.6-37.4q-0.7 0-1.4 0c-8.3 0-16.3 3.2-22.6 8.9-4.1 3.7-7.4 8.5-9.4 13.8l-15.7 41.8c-3.4 9-9 17.2-16.1 23.6-10.3 9.4-23.6 14.9-37.3 15.4q-1.2 0-2.4 0c-17.7 0-34.2-7-46.5-19.8-12.2-12.8-18.6-29.6-17.9-47.3 1.3-33.5 28.6-60.7 62.2-61.8 14.7-0.5 29.3 4.1 41 12.9 5.7 4.3 6.8 12.3 2.5 17.9-4.2 5.6-12.2 6.7-17.8 2.5-7.2-5.5-15.8-8.2-24.8-7.9-20.3 0.7-36.8 17.1-37.6 37.4-0.5 10.8 3.4 20.9 10.8 28.6 7.4 7.7 17.4 12 28.1 12q0.7 0 1.5 0c7.7-0.3 15.2-3.4 21.1-8.8 4.1-3.7 7.4-8.5 9.3-13.7l15.8-41.8c3.4-9 8.9-17.3 16.1-23.7 11-10 25.1-15.5 39.7-15.5 0.8 0 1.5 0 2.2 0.1 33.6 1.1 60.9 28.3 62.2 61.8 0.7 17.7-5.6 34.5-17.9 47.3-12.3 12.8-28.8 19.8-46.5 19.8z"/>
			</g>
			<g id="&lt;Group&gt;">
				<path id="&lt;Path&gt;" class="s0" d="m179.1 0.8c-7.1 0-12.8 5.8-12.8 12.9v78c0 5.1-3.1 9.4-7.5 11.3-0.3 0.2-0.5 0.2-0.8 0.3-0.5 0.2-1 0.4-1.5 0.5-0.3 0-0.5 0-0.8 0.1-0.5 0.1-1.1 0.1-1.6 0.1-1.5 0.1-3.1-0.2-4.5-0.8-3.1-1.1-5.6-3.4-6.9-6.4l-22.7-50.9c-0.2-0.3-0.3-0.6-0.5-0.9l-9.6-21.4c-6.3-14.1-19.6-22.8-34.7-22.8q0 0 0 0c-15.1 0.1-28.4 8.8-34.7 22.8l-39.4 88.3c-2.9 6.5 0 14.1 6.5 17 1.7 0.7 3.5 1.1 5.3 1.1 4.9 0 9.6-2.8 11.7-7.6l39.4-88.3c2.1-4.7 6.3-7.5 11.2-7.5q0 0 0 0c4.9 0 9.1 2.8 11.2 7.5l29.4 65.4q0 0.2 0.1 0.3l3.3 7.4c4.2 9.3 11.7 16.4 21.2 20.1 4.4 1.6 9 2.5 13.6 2.5 2.3 0 4.6-0.3 6.9-0.7q0.3 0 0.7-0.1c0.7-0.2 1.4-0.4 2.1-0.5 0.5-0.2 1.1-0.3 1.7-0.5 0.6-0.2 1.2-0.5 1.8-0.7q0.9-0.3 1.8-0.7 0.2 0 0.5-0.1c0.2-0.1 0.3-0.2 0.5-0.3 12.9-6.1 22-19.2 22-34.5v-78c0-7.1-5.8-12.9-12.9-12.9z"/>
			</g>
			<path id="&lt;Compound Path&gt;" class="s0" d="m269.1 26.6c21.5 0 38.9 17.4 38.9 38.8v51.7c0 7.1 5.8 12.9 12.9 12.9 7.1 0 12.8-5.8 12.8-12.9v-51.7c0-35.6-28.9-64.6-64.6-64.6-35.6 0-64.5 29-64.5 64.6v51.7c0 7.1 5.7 12.9 12.8 12.9 7.1 0 12.9-5.8 12.9-12.9v-51.7c0-21.4 17.4-38.8 38.8-38.8z"/>
			<path id="&lt;Compound Path&gt;" class="s0" d="m656 26.6c21.4 0 38.8 17.4 38.8 38.8v51.7c0 7.1 5.8 12.9 12.9 12.9 7.1 0 12.8-5.8 12.8-12.9v-51.7c0-35.6-28.9-64.6-64.5-64.6-35.7 0-64.6 29-64.6 64.6v51.7c0 7.1 5.7 12.9 12.8 12.9 7.1 0 12.9-5.8 12.9-12.9v-51.7c0-21.4 17.4-38.8 38.9-38.8z"/>
		</g>
	</g>
</svg>